<svg xmlns="http://www.w3.org/2000/svg" version="1.1"
     width="1000" height="1000" viewBox="0 0 1000 1000">
    <g transform="matrix(0.7,0,0,0.7,149.90044910179654,149.90044910179637)">
        <svg viewBox="0 0 334 334" data-background-color="#ffffff" preserveAspectRatio="xMidYMid meet" height="1000"
             width="1000" xmlns="http://www.w3.org/2000/svg">
            <g id="tight-bounds" transform="matrix(1,0,0,1,0.04749999999998522,0.04750000000001364)">
                <svg viewBox="0 0 333.90454557049503 333.90454557049503" height="333.90454557049503"
                     width="333.90454557049503">
                    <g>
                        <svg></svg>
                    </g>
                    <g>
                        <svg viewBox="0 0 333.90454557049503 333.90454557049503" height="333.90454557049503"
                             width="333.90454557049503">
                            <g>
                                <path d="M0 166.952c0-92.205 74.747-166.952 166.952-166.952 92.205 0 166.952 74.747 166.953 166.952 0 92.205-74.747 166.952-166.953 166.953-92.205 0-166.952-74.747-166.952-166.953zM166.952 327.911c88.895 0 160.958-72.064 160.959-160.959 0-88.895-72.064-160.958-160.959-160.958-88.895 0-160.958 72.064-160.958 160.958 0 88.895 72.064 160.958 160.958 160.959z"
                                      data-fill-palette-color="tertiary" fill="#ff0000" stroke="transparent"></path>
                                <ellipse rx="160.27418187383762" ry="160.27418187383762" cx="166.95227278524752"
                                         cy="166.95227278524752" fill="#ff0000" stroke="transparent" stroke-width="0"
                                         fill-opacity="1" data-fill-palette-color="tertiary"></ellipse>
                            </g>
                            <g transform="matrix(1,0,0,1,93.93969728531248,71.17305217166896)">
                                <svg viewBox="0 0 146.02515099987008 191.55844122715712" height="191.55844122715712"
                                     width="146.02515099987008">
                                    <g>
                                        <svg viewBox="0 0 146.02515099987008 191.55844122715712"
                                             height="191.55844122715712" width="146.02515099987008">
                                            <g>
                                                <svg viewBox="0 0 213.1584412271571 279.6251088000664"
                                                     height="191.55844122715712" width="146.02515099987008">
                                                    <g transform="matrix(1,0,0,1,0,120.74256652554952)">
                                                        <svg viewBox="0 0 213.1584412271571 158.88254227451688"
                                                             height="158.88254227451688" width="213.1584412271571">
                                                            <g id="textblocktransform">
                                                                <svg viewBox="0 0 213.1584412271571 158.88254227451688"
                                                                     height="158.88254227451688"
                                                                     width="213.1584412271571" id="textblock">
                                                                    <g>
                                                                        <svg viewBox="0 0 213.1584412271571 97.01998941119585"
                                                                             height="97.01998941119585"
                                                                             width="213.1584412271571">
                                                                            <g transform="matrix(1,0,0,1,0,0)">
                                                                                <svg width="213.1584412271571"
                                                                                     viewBox="0.5099999904632568 -38.15999984741211 83.83999633789062 38.15999984741211"
                                                                                     height="97.01998941119585"
                                                                                     data-palette-color="#ffffff">
                                                                                    <path d="M0.51 0L18.43-38.16 26.64-38.16 45.09 0 36.96 0 33.91-6.42 11.62-6.42 8.67 0 0.51 0ZM14.58-12.79L30.86-12.79 22.61-30.13 14.58-12.79ZM62.52 0L62.52-31.37 48.44-31.37 48.44-38.16 84.35-38.16 84.35-31.37 70.26-31.37 70.26 0 62.52 0Z"
                                                                                          opacity="1"
                                                                                          transform="matrix(1,0,0,1,0,0)"
                                                                                          fill="#ffffff"
                                                                                          class="wordmark-text-0"
                                                                                          data-fill-palette-color="quaternary"
                                                                                          id="text-0"></path>
                                                                                </svg>
                                                                            </g>
                                                                        </svg>
                                                                    </g>
                                                                    <g transform="matrix(1,0,0,1,0,119.92408043143332)">
                                                                        <svg viewBox="0 0 213.1584412271571 38.95846184308354"
                                                                             height="38.95846184308354"
                                                                             width="213.1584412271571">
                                                                            <g transform="matrix(1,0,0,1,0,0)">
                                                                                <svg width="213.1584412271571"
                                                                                     viewBox="3.0999999046325684 -35 191.5 35"
                                                                                     height="38.95846184308354"
                                                                                     data-palette-color="#ffffff">
                                                                                    <path d="M18.1 0L3.1 0 3.1-35 18.1-35Q19.55-35 20.6-33.95 21.65-32.9 21.65-31.4L21.65-31.4 21.65-3.6Q21.65-2.1 20.6-1.05 19.55 0 18.1 0L18.1 0ZM7.75-30.35L7.75-4.65 15.25-4.65Q15.95-4.65 16.5-5.18 17.05-5.7 17.05-6.45L17.05-6.45 17.05-28.55Q17.05-29.3 16.5-29.83 15.95-30.35 15.25-30.35L15.25-30.35 7.75-30.35ZM43.95 0L25.35 0 25.35-35 43.95-35 43.95-30.4 30-30.4 30-21.7 39.3-21.7 38.25-17.05 30-17.05 30-4.65 43.95-4.65 43.95 0ZM57.85 0L53 0 46.15-35 50.8-35 55.45-11.35 60.1-35 64.75-35 57.85 0ZM86.05 0L67.45 0 67.45-35 86.05-35 86.05-30.4 72.1-30.4 72.1-21.7 81.4-21.7 80.35-17.05 72.1-17.05 72.1-4.65 86.05-4.65 86.05 0ZM107.35 0L90.75 0 90.75-35 95.4-35 95.4-4.65 107.35-4.65 107.35 0ZM125.2 0L113.85 0Q112.45 0 111.4-1.05 110.35-2.1 110.35-3.65L110.35-3.65 110.35-31.35Q110.35-32.9 111.4-33.95 112.45-35 113.85-35L113.85-35 125.2-35Q126.8-35 127.83-33.95 128.85-32.9 128.85-31.35L128.85-31.35 128.85-3.65Q128.85-2.1 127.83-1.05 126.8 0 125.2 0L125.2 0ZM116.7-4.6L116.7-4.6 122.35-4.6Q123.2-4.6 123.72-5.15 124.25-5.7 124.25-6.5L124.25-6.5 124.25-28.5Q124.25-29.35 123.72-29.88 123.2-30.4 122.35-30.4L122.35-30.4 116.7-30.4Q116-30.4 115.47-29.88 114.95-29.35 114.95-28.5L114.95-28.5 114.95-6.5Q114.95-5.7 115.47-5.15 116-4.6 116.7-4.6ZM137.2 0L132.55 0 132.55-35 147.55-35Q149-35 150.07-33.95 151.15-32.9 151.15-31.4L151.15-31.4 151.15-20.65Q151.15-19.15 150.07-18.1 149-17.05 147.55-17.05L147.55-17.05 137.2-17.05 137.2 0ZM137.2-30.35L137.2-21.7 144.7-21.7Q145.45-21.7 145.97-22.23 146.5-22.75 146.5-23.5L146.5-23.5 146.5-28.6Q146.5-29.3 145.97-29.83 145.45-30.35 144.7-30.35L144.7-30.35 137.2-30.35ZM172.95 0L154.35 0 154.35-35 172.95-35 172.95-30.4 159-30.4 159-21.7 168.3-21.7 167.25-17.05 159-17.05 159-4.65 172.95-4.65 172.95 0ZM180.7 0L176.05 0 176.05-35 191.05-35Q192.5-35 193.55-33.95 194.6-32.9 194.6-31.4L194.6-31.4 194.6-20.65Q194.6-19.15 193.55-18.1 192.5-17.05 191.05-17.05L191.05-17.05 190-17.05 194.6 0 190 0 185.35-17.05 180.7-17.05 180.7 0ZM180.7-30.35L180.7-21.7 188.2-21.7Q188.9-21.7 189.45-22.23 190-22.75 190-23.5L190-23.5 190-28.55Q190-29.3 189.45-29.83 188.9-30.35 188.2-30.35L188.2-30.35 180.7-30.35Z"
                                                                                          opacity="1"
                                                                                          transform="matrix(1,0,0,1,0,0)"
                                                                                          fill="#ffffff"
                                                                                          class="slogan-text-1"
                                                                                          data-fill-palette-color="quaternary"
                                                                                          id="text-1"></path>
                                                                                </svg>
                                                                            </g>
                                                                        </svg>
                                                                    </g>
                                                                </svg>
                                                            </g>
                                                        </svg>
                                                    </g>
                                                    <g transform="matrix(1,0,0,1,40.713262274387006,0)">
                                                        <svg viewBox="0 0 131.7319166783831 97.83847550531205"
                                                             height="97.83847550531205" width="131.7319166783831">
                                                            <g>
                                                                <svg xmlns="http://www.w3.org/2000/svg" version="1.1"
                                                                     x="0" y="0"
                                                                     viewBox="7.5 18.434999465942383 85.0009994506836 63.131004333496094"
                                                                     enable-background="new 0 0 100 100"
                                                                     xml:space="preserve" height="97.83847550531205"
                                                                     width="131.7319166783831" class="icon-icon-0"
                                                                     data-fill-palette-color="quaternary" id="icon-0"><g fill="#ffffff" data-fill-palette-color="quaternary"><path d="M89.405 18.435H10.595c-1.706 0-3.095 1.389-3.095 3.095v56.941c0 1.706 1.389 3.095 3.095 3.095h78.811c1.707 0 3.095-1.389 3.095-3.095V77.14 32.027 21.529C92.5 19.823 91.112 18.435 89.405 18.435zM10.595 19.673h78.811c1.023 0 1.857 0.833 1.857 1.856v9.075c-0.068-0.01-0.136-0.021-0.207-0.021H8.951c-0.073 0-0.143 0.011-0.213 0.021v-9.076C8.738 20.506 9.571 19.673 10.595 19.673zM91.263 77.14c0 0.114-0.093 0.206-0.207 0.206H8.951c-0.113 0-0.206-0.092-0.206-0.206V32.027c0-0.113 0.093-0.206 0.206-0.206h82.104c0.114 0 0.207 0.093 0.207 0.206V77.14zM89.405 80.327H10.595c-0.992 0-1.798-0.784-1.848-1.764 0.067 0.01 0.135 0.021 0.204 0.021h82.104c0.068 0 0.133-0.011 0.197-0.02C91.202 79.544 90.396 80.327 89.405 80.327z" fill="#ffffff" data-fill-palette-color="quaternary"></path><path
                                                                        d="M28.178 27.787c1.45 0 2.63-1.18 2.63-2.63 0-1.451-1.18-2.631-2.63-2.631s-2.631 1.18-2.631 2.631C25.547 26.607 26.728 27.787 28.178 27.787zM28.178 23.765c0.768 0 1.393 0.624 1.393 1.393 0 0.768-0.625 1.393-1.393 1.393-0.769 0-1.393-0.625-1.393-1.393C26.785 24.389 27.409 23.765 28.178 23.765z"
                                                                        fill="#ffffff"
                                                                        data-fill-palette-color="quaternary"></path><path
                                                                        d="M21.458 27.787c1.451 0 2.631-1.18 2.631-2.63 0-1.451-1.18-2.631-2.631-2.631-1.45 0-2.63 1.18-2.63 2.631C18.828 26.607 20.008 27.787 21.458 27.787zM21.458 23.765c0.769 0 1.393 0.624 1.393 1.393 0 0.768-0.624 1.393-1.393 1.393-0.768 0-1.393-0.625-1.393-1.393C20.065 24.389 20.69 23.765 21.458 23.765z"
                                                                        fill="#ffffff"
                                                                        data-fill-palette-color="quaternary"></path><path
                                                                        d="M14.738 27.787c1.451 0 2.631-1.18 2.631-2.63 0-1.451-1.18-2.631-2.631-2.631-1.45 0-2.63 1.18-2.63 2.631C12.108 26.607 13.288 27.787 14.738 27.787zM14.738 23.765c0.769 0 1.393 0.624 1.393 1.393 0 0.768-0.624 1.393-1.393 1.393-0.768 0-1.393-0.625-1.393-1.393C13.346 24.389 13.971 23.765 14.738 23.765z"
                                                                        fill="#ffffff"
                                                                        data-fill-palette-color="quaternary"></path></g>
                                                                    <path
                                                                            d="M26.598 65.915c-0.624 0-1.395-0.429-2.289-1.276-1.605-1.519-2.16-2.371-1.2-3.405l8.79-8.811-8.774-8.782c-0.676-0.676-0.57-1.195-0.401-1.57 0.242-0.544 0.814-1.117 1.479-1.781 0.829-0.829 1.542-1.542 2.241-1.542 0.342 0 0.679 0.172 1.033 0.526l11.769 11.755c0.311 0.254 0.521 0.659 0.564 1.134 0.048 0.537-0.134 1.152-0.452 1.533L27.53 65.514C27.243 65.787 26.941 65.915 26.598 65.915zM23.846 42.57c-0.009 0 0.027 0.068 0.154 0.194l9.211 9.221c0.241 0.242 0.241 0.633 0 0.875L24 62.093c-0.093 0.1-0.125 0.147-0.133 0.166 0.012 0.047 0.125 0.377 1.292 1.48 0.979 0.927 1.42 0.938 1.438 0.938v0.619l0.01-0.62c-0.001 0.001-0.001 0.001-0.001 0.001-0.003 0 0.02-0.012 0.061-0.05l11.777-11.767c0.061-0.077 0.151-0.357 0.131-0.589-0.013-0.145-0.063-0.246-0.162-0.328L26.601 40.148c-0.144-0.143-0.215-0.171-0.215-0.171-0.182 0.06-0.886 0.764-1.307 1.184-0.531 0.532-1.077 1.078-1.227 1.413C23.85 42.571 23.848 42.57 23.846 42.57z"
                                                                            fill="#ffffff"
                                                                            data-fill-palette-color="quaternary"></path>
                                                                    <path
                                                                            d="M55.834 71.436H40.498c-1.594 0-1.92-1.234-1.92-3.088s0.326-3.088 1.92-3.088h15.336c1.503 0 1.787 1.085 1.787 3.088C57.621 70.396 57.346 71.436 55.834 71.436zM40.498 66.497c-0.366 0-0.683 0-0.683 1.851s0.316 1.851 0.683 1.851h15.336c0.354 0 0.55 0 0.55-1.851s-0.219-1.851-0.55-1.851H40.498z"
                                                                            fill="#ffffff"
                                                                            data-fill-palette-color="quaternary"></path></svg>
                                                            </g>
                                                        </svg>
                                                    </g>
                                                    <g></g>
                                                </svg>
                                            </g>
                                        </svg>
                                    </g>
                                </svg>
                            </g>
                        </svg>
                    </g>
                    <defs></defs>
                </svg>
                <rect width="333.90454557049503" height="333.90454557049503" fill="none" stroke="none"
                      visibility="hidden"></rect>
            </g>
        </svg>
    </g>
</svg>